Coordinates
version=1
nRows=16
nColumns=22
inDegrees=yes

Units are S.I. units (second, meters, Newtons, ...)
If the header above contains a line with 'inDegrees', this indicates whether rotational values are in degrees (yes) or radians (no).

endheader
time	pelvis_tilt	pelvis_list	pelvis_rotation	pelvis_tx	pelvis_ty	pelvis_tz	hip_flexion_r	hip_adduction_r	hip_rotation_r	knee_angle_r	ankle_angle_r	subtalar_angle_r	hip_flexion_l	hip_adduction_l	hip_rotation_l	knee_angle_l	ankle_angle_l	subtalar_angle_l	lumbar_extension	lumbar_bending	lumbar_rotation
      1.38000000	      1.89528985	     -1.36875147	     -0.65758635	      0.84770694	      1.08293802	     -0.32424057	     -2.98626938	      2.66873896	     -1.62510437	    -10.24379746	     10.70952467	     -3.66754581	     -0.28578179	     -1.37856713	     -1.36496362	    -13.92095147	     13.02772001	      1.19224672	     -2.87538347	     -1.15538228	     -4.81607443
      1.39000000	      1.92389341	     -1.39325571	     -0.71183982	      0.84704007	      1.08302330	     -0.32355171	     -2.92952572	      2.72925423	     -1.57487429	    -10.32706568	     10.67312198	     -3.71410976	     -0.16392517	     -1.44614595	     -1.41622301	    -14.14343051	     13.02288204	      1.28809347	     -2.91642094	     -1.12023810	     -4.84362686
      1.40000000	      1.97437240	     -1.40617529	     -0.75709889	      0.84633565	      1.08314947	     -0.32285019	     -2.90365225	      2.77875480	     -1.53029624	    -10.39280575	     10.64067270	     -3.73985718	     -0.05166908	     -1.50218532	     -1.46519908	    -14.38329114	     12.98468282	      1.33334026	     -2.98587423	     -1.09391920	     -4.89856746
      1.41000000	      1.97497341	     -1.45879712	     -0.81595277	      0.84553709	      1.08321002	     -0.32207127	     -2.81688592	      2.87693131	     -1.45769805	    -10.46087964	     10.56419146	     -3.81357581	      0.14133099	     -1.60438761	     -1.50121358	    -14.67189868	     13.02242013	      1.45152360	     -3.00768248	     -1.02284546	     -4.90235143
      1.42000000	      1.99285023	     -1.49246799	     -0.86344919	      0.84469156	      1.08330594	     -0.32128580	     -2.75341695	      2.95618967	     -1.40626344	    -10.51574313	     10.49982121	     -3.88241644	      0.33274739	     -1.68773103	     -1.53980453	    -14.98021408	     13.01795977	      1.55338508	     -3.05688239	     -0.97001925	     -4.93209402
      1.43000000	      2.00002461	     -1.52214766	     -0.91071146	      0.84377892	      1.08339691	     -0.32046417	     -2.67994474	      3.03528021	     -1.33533944	    -10.56200929	     10.42277220	     -3.97280689	      0.55317562	     -1.76855070	     -1.57095391	    -15.31303779	     13.02270303	      1.67734989	     -3.10223251	     -0.92001981	     -4.97274979
      1.44000000	      2.03311865	     -1.56452032	     -0.95181098	      0.84281560	      1.08353483	     -0.31962485	     -2.64911027	      3.12876662	     -1.29583373	    -10.57170290	     10.33567276	     -4.04152168	      0.76250491	     -1.86434335	     -1.60076237	    -15.66916034	     13.00566562	      1.75733446	     -3.18737298	     -0.85505519	     -4.98102668
      1.45000000	      2.05842366	     -1.60863270	     -0.99013108	      0.84178346	      1.08366708	     -0.31873852	     -2.61337443	      3.22901571	     -1.24528698	    -10.56990735	     10.23444426	     -4.13174605	      1.00210216	     -1.96618808	     -1.62957909	    -16.05798455	     12.98865515	      1.85490052	     -3.27013088	     -0.78941407	     -4.99790597
      1.46000000	      2.07873497	     -1.65386086	     -1.02670545	      0.84065328	      1.08379579	     -0.31781792	     -2.57346059	      3.33372239	     -1.19344490	    -10.55533674	     10.12321123	     -4.24509852	      1.26733987	     -2.07101491	     -1.64779787	    -16.47290910	     12.97137253	      1.96965130	     -3.36060268	     -0.72159228	     -5.01126311
      1.47000000	      2.10940208	     -1.69884785	     -1.05877947	      0.83944167	      1.08394148	     -0.31686120	     -2.55138594	      3.44085561	     -1.15254101	    -10.51937975	     10.00819532	     -4.35894312	      1.54171642	     -2.17837522	     -1.66259904	    -16.91462369	     12.93516079	      2.07933734	     -3.47236304	     -0.65528249	     -5.01781808
      1.48000000	      2.14467069	     -1.74898197	     -1.08666556	      0.83813398	      1.08409381	     -0.31585546	     -2.53680122	      3.55714946	     -1.11687113	    -10.46805288	      9.88317224	     -4.47953059	      1.83320711	     -2.29458105	     -1.66976911	    -17.38529992	     12.89083556	      2.19298834	     -3.60045102	     -0.58615695	     -5.02001767
      1.49000000	      2.17187917	     -1.79581181	     -1.11127922	      0.83669423	      1.08422720	     -0.31481471	     -2.50714106	      3.67299590	     -1.07516435	    -10.41675524	      9.74993548	     -4.63315797	      2.16074827	     -2.40929536	     -1.66039320	    -17.89242173	     12.85476847	      2.33970545	     -3.73447093	     -0.51884061	     -5.02826239
      1.50000000	      2.20857019	     -1.84717994	     -1.12896403	      0.83517235	      1.08437447	     -0.31373187	     -2.49446204	      3.79554654	     -1.06072211	    -10.34220119	      9.61719497	     -4.76988613	      2.49944851	     -2.53171379	     -1.64146705	    -18.42679085	     12.78736964	      2.47534472	     -3.88638133	     -0.45038677	     -5.01728437
      1.51000000	      2.26869310	     -1.90726713	     -1.14256481	      0.83355628	      1.08456177	     -0.31261735	     -2.50988365	      3.92705260	     -1.06921762	    -10.25154487	      9.47219173	     -4.85230967	      2.82876311	     -2.66408358	     -1.60294971	    -18.97726695	     12.67038375	      2.56439067	     -4.07516148	     -0.37214271	     -4.98241516
      1.52000000	      2.28111335	     -1.95001230	     -1.14292611	      0.83178401	      1.08466134	     -0.31147414	     -2.45809996	      4.04506634	     -1.07550655	    -10.17702195	      9.33690723	     -5.00488698	      3.25312490	     -2.78076936	     -1.53733614	    -19.58811312	     12.58767952	      2.74443117	     -4.22304646	     -0.31401445	     -4.97539524
      1.53000000	      2.34162523	     -1.99969699	     -1.14119826	      0.82993309	      1.08485138	     -0.31029623	     -2.46254803	      4.16935998	     -1.10272327	    -10.08335906	      9.17630267	     -5.06689221	      3.63391017	     -2.90255316	     -1.44276876	    -20.19967865	     12.41748231	      2.84407944	     -4.43470966	     -0.25045927	     -4.93159118
